<svg width="512" height="512" viewBox="0 0 512 512" fill="none"
    xmlns="http://www.w3.org/2000/svg">
    <rect width="512" height="512" rx="128" fill="black"/>
    <path d="M256 100C300 100 340 140 340 200C340 240 310 270 280 290C250 310 200 330 200 380C200 400 210 420 230 430C210 430 180 410 180 380C180 330 230 310 260 290C290 270 320 240 320 200C320 160 290 120 256 120C220 120 190 150 190 190L170 190C170 140 210 100 256 100Z" fill="url(#paint0_linear)"/>
    <path d="M256 412C212 412 172 372 172 312C172 272 202 242 232 222C262 202 312 182 312 132C312 112 302 92 282 82C302 82 332 102 332 132C332 182 282 202 252 222C222 242 192 272 192 312C192 352 222 392 256 392C292 392 322 362 322 322L342 322C342 372 302 412 256 412Z" fill="url(#paint1_linear)"/>
    <!-- Flame stylized S core -->
    <path d="M256 80C290 80 320 110 320 150C320 190 280 220 240 250C200 280 160 310 160 360C160 410 200 440 256 440C312 440 352 410 352 360L332 360C332 395 305 420 256 420C207 420 180 395 180 360C180 325 210 300 250 270C290 240 340 210 340 150C340 95 295 60 256 60C217 60 172 95 172 150L192 150C192 110 222 80 256 80Z" fill="url(#paint2_linear)"/>
    <defs>
        <linearGradient id="paint0_linear" x1="256" y1="100" x2="256" y2="430" gradientUnits="userSpaceOnUse">
            <stop stop-color="#FF4D4D"/>
            <stop offset="1" stop-color="#FF9933"/>
        </linearGradient>
        <linearGradient id="paint1_linear" x1="256" y1="82" x2="256" y2="412" gradientUnits="userSpaceOnUse">
            <stop stop-color="#FF4D4D"/>
            <stop offset="1" stop-color="#FF9933"/>
        </linearGradient>
        <linearGradient id="paint2_linear" x1="256" y1="60" x2="256" y2="440" gradientUnits="userSpaceOnUse">
            <stop stop-color="#FF4D4D"/>
            <stop offset="1" stop-color="#FF9933"/>
        </linearGradient>
    </defs>
</svg>